HIERARCHY
ROOT Hips
{
	OFFSET -19.833931 -21.612968 87.443054
	CHANNELS 6 Xposition Yposition Zposition Zrotation Yrotation Xrotation
	JOINT Spine
	{
		OFFSET 0.000000 2.080109 8.814247
		CHANNELS 6 Xposition Yposition Zposition Zrotation Yrotation Xrotation
		JOINT Spine1
		{
			OFFSET 0.000000 0.000000 8.844139
			CHANNELS 6 Xposition Yposition Zposition Zrotation Yrotation Xrotation
			JOINT Spine2
			{
				OFFSET 0.000000 0.000002 11.682266
				CHANNELS 6 Xposition Yposition Zposition Zrotation Yrotation Xrotation
				JOINT Spine3
				{
					OFFSET 0.000000 0.000000 11.746704
					CHANNELS 6 Xposition Yposition Zposition Zrotation Yrotation Xrotation
					JOINT Neck
					{
						OFFSET 0.000000 0.000002 17.658264
						CHANNELS 6 Xposition Yposition Zposition Zrotation Yrotation Xrotation
						JOINT Neck1
						{
							OFFSET 0.000000 0.000000 5.101517
							CHANNELS 6 Xposition Yposition Zposition Zrotation Yrotation Xrotation
							JOINT Head
							{
								OFFSET 0.000000 0.000000 5.101517
								CHANNELS 6 Xposition Yposition Zposition Zrotation Yrotation Xrotation
								JOINT HeadEnd
								{
									OFFSET 0.000000 0.000002 11.655090
									CHANNELS 6 Xposition Yposition Zposition Zrotation Yrotation Xrotation
									End Site
									{
										OFFSET 0.000000 0.000000 0.100006
									}
								}
							}
						}
					}
					JOINT RightShoulder
					{
						OFFSET -2.625389 0.000002 11.175217
						CHANNELS 6 Xposition Yposition Zposition Zrotation Yrotation Xrotation
						JOINT RightArm
						{
							OFFSET 0.000000 0.000000 10.434723
							CHANNELS 6 Xposition Yposition Zposition Zrotation Yrotation Xrotation
							JOINT RightForeArm
							{
								OFFSET 0.000000 0.000002 29.628418
								CHANNELS 6 Xposition Yposition Zposition Zrotation Yrotation Xrotation
								JOINT RightHand
								{
									OFFSET 0.000000 0.000002 22.857605
									CHANNELS 6 Xposition Yposition Zposition Zrotation Yrotation Xrotation
									JOINT RightHandThumb1
									{
										OFFSET -2.867323 -2.944290 3.959564
										CHANNELS 6 Xposition Yposition Zposition Zrotation Yrotation Xrotation
										JOINT RightHandThumb2
										{
											OFFSET 0.000000 0.000000 3.350403
											CHANNELS 6 Xposition Yposition Zposition Zrotation Yrotation Xrotation
											JOINT RightHandThumb3
											{
												OFFSET 0.000000 0.000000 3.756516
												CHANNELS 6 Xposition Yposition Zposition Zrotation Yrotation Xrotation
												JOINT RightHandThumb4
												{
													OFFSET 0.000000 0.000002 3.147339
													CHANNELS 6 Xposition Yposition Zposition Zrotation Yrotation Xrotation
													End Site
													{
														OFFSET 0.000000 0.000000 0.100006
													}
												}
											}
										}
									}
									JOINT RightHandIndex1
									{
										OFFSET -0.086752 -2.345280 10.030899
										CHANNELS 6 Xposition Yposition Zposition Zrotation Yrotation Xrotation
										JOINT RightHandIndex2
										{
											OFFSET 0.000000 0.000002 4.061096
											CHANNELS 6 Xposition Yposition Zposition Zrotation Yrotation Xrotation
											JOINT RightHandIndex3
											{
												OFFSET 0.000000 0.000000 3.248871
												CHANNELS 6 Xposition Yposition Zposition Zrotation Yrotation Xrotation
												JOINT RightHandIndex4
												{
													OFFSET 0.000000 0.000000 2.639709
													CHANNELS 6 Xposition Yposition Zposition Zrotation Yrotation Xrotation
													End Site
													{
														OFFSET 0.000000 0.000000 0.100006
													}
												}
											}
										}
									}
									JOINT RightHandMiddle1
									{
										OFFSET 0.104101 -0.006767 9.502945
										CHANNELS 6 Xposition Yposition Zposition Zrotation Yrotation Xrotation
										JOINT RightHandMiddle2
										{
											OFFSET 0.000000 0.000002 4.568726
											CHANNELS 6 Xposition Yposition Zposition Zrotation Yrotation Xrotation
											JOINT RightHandMiddle3
											{
												OFFSET 0.000000 0.000000 3.654984
												CHANNELS 6 Xposition Yposition Zposition Zrotation Yrotation Xrotation
												JOINT RightHandMiddle4
												{
													OFFSET 0.000000 0.000000 2.741241
													CHANNELS 6 Xposition Yposition Zposition Zrotation Yrotation Xrotation
													End Site
													{
														OFFSET 0.000000 0.000000 0.100006
													}
												}
											}
										}
									}
									JOINT RightHandRing1
									{
										OFFSET 0.086752 2.267443 8.921707
										CHANNELS 6 Xposition Yposition Zposition Zrotation Yrotation Xrotation
										JOINT RightHandRing2
										{
											OFFSET 0.000000 0.000002 4.061096
											CHANNELS 6 Xposition Yposition Zposition Zrotation Yrotation Xrotation
											JOINT RightHandRing3
											{
												OFFSET 0.000000 0.000000 3.654984
												CHANNELS 6 Xposition Yposition Zposition Zrotation Yrotation Xrotation
												JOINT RightHandRing4
												{
													OFFSET 0.000000 0.000000 2.741241
													CHANNELS 6 Xposition Yposition Zposition Zrotation Yrotation Xrotation
													End Site
													{
														OFFSET 0.000000 0.000000 0.100006
													}
												}
											}
										}
									}
									JOINT RightHandPinky1
									{
										OFFSET -0.173504 4.467200 7.976990
										CHANNELS 6 Xposition Yposition Zposition Zrotation Yrotation Xrotation
										JOINT RightHandPinky2
										{
											OFFSET 0.000000 0.000000 3.350403
											CHANNELS 6 Xposition Yposition Zposition Zrotation Yrotation Xrotation
											JOINT RightHandPinky3
											{
												OFFSET 0.000000 0.000000 2.842758
												CHANNELS 6 Xposition Yposition Zposition Zrotation Yrotation Xrotation
												JOINT RightHandPinky4
												{
													OFFSET 0.000000 0.000000 2.639709
													CHANNELS 6 Xposition Yposition Zposition Zrotation Yrotation Xrotation
													End Site
													{
														OFFSET 0.000000 0.000000 0.100006
													}
												}
											}
										}
									}
									JOINT RightForeArmEnd
									{
										OFFSET 0.000000 0.000000 0.000000
										CHANNELS 6 Xposition Yposition Zposition Zrotation Yrotation Xrotation
										End Site
										{
											OFFSET 0.000000 0.000000 0.100006
										}
									}
								}
								JOINT RightArmEnd
								{
									OFFSET 0.000000 0.000000 0.000000
									CHANNELS 6 Xposition Yposition Zposition Zrotation Yrotation Xrotation
									End Site
									{
										OFFSET 0.000000 0.000000 0.100006
									}
								}
							}
						}
					}
					JOINT LeftShoulder
					{
						OFFSET 2.625389 0.000002 11.175217
						CHANNELS 6 Xposition Yposition Zposition Zrotation Yrotation Xrotation
						JOINT LeftArm
						{
							OFFSET 0.000000 0.000000 10.813629
							CHANNELS 6 Xposition Yposition Zposition Zrotation Yrotation Xrotation
							JOINT LeftForeArm
							{
								OFFSET 0.000000 0.000002 28.724777
								CHANNELS 6 Xposition Yposition Zposition Zrotation Yrotation Xrotation
								JOINT LeftHand
								{
									OFFSET 0.644384 0.328873 25.716171
									CHANNELS 6 Xposition Yposition Zposition Zrotation Yrotation Xrotation
									JOINT LeftHandThumb1
									{
										OFFSET 2.867323 -2.944292 3.959564
										CHANNELS 6 Xposition Yposition Zposition Zrotation Yrotation Xrotation
										JOINT LeftHandThumb2
										{
											OFFSET 0.000000 0.000000 3.350403
											CHANNELS 6 Xposition Yposition Zposition Zrotation Yrotation Xrotation
											JOINT LeftHandThumb3
											{
												OFFSET 0.000000 0.000002 3.756516
												CHANNELS 6 Xposition Yposition Zposition Zrotation Yrotation Xrotation
												JOINT LeftHandThumb4
												{
													OFFSET 0.000000 0.000000 3.100006
													CHANNELS 6 Xposition Yposition Zposition Zrotation Yrotation Xrotation
													End Site
													{
														OFFSET 0.000000 0.000000 0.100006
													}
												}
											}
										}
									}
									JOINT LeftHandIndex1
									{
										OFFSET 0.086752 -2.345278 10.030899
										CHANNELS 6 Xposition Yposition Zposition Zrotation Yrotation Xrotation
										JOINT LeftHandIndex2
										{
											OFFSET 0.000000 0.000000 4.061096
											CHANNELS 6 Xposition Yposition Zposition Zrotation Yrotation Xrotation
											JOINT LeftHandIndex3
											{
												OFFSET 0.000000 0.000000 3.248871
												CHANNELS 6 Xposition Yposition Zposition Zrotation Yrotation Xrotation
												JOINT LeftHandIndex4
												{
													OFFSET 0.000000 0.000000 2.639709
													CHANNELS 6 Xposition Yposition Zposition Zrotation Yrotation Xrotation
													End Site
													{
														OFFSET 0.000000 0.000000 0.100006
													}
												}
											}
										}
									}
									JOINT LeftHandMiddle1
									{
										OFFSET -0.104101 -0.006767 9.502945
										CHANNELS 6 Xposition Yposition Zposition Zrotation Yrotation Xrotation
										JOINT LeftHandMiddle2
										{
											OFFSET 0.000000 0.000002 4.568726
											CHANNELS 6 Xposition Yposition Zposition Zrotation Yrotation Xrotation
											JOINT LeftHandMiddle3
											{
												OFFSET 0.000000 0.000000 3.654984
												CHANNELS 6 Xposition Yposition Zposition Zrotation Yrotation Xrotation
												JOINT LeftHandMiddle4
												{
													OFFSET 0.000000 0.000000 2.741241
													CHANNELS 6 Xposition Yposition Zposition Zrotation Yrotation Xrotation
													End Site
													{
														OFFSET 0.000000 0.000000 0.100006
													}
												}
											}
										}
									}
									JOINT LeftHandRing1
									{
										OFFSET -0.086752 2.267443 8.921707
										CHANNELS 6 Xposition Yposition Zposition Zrotation Yrotation Xrotation
										JOINT LeftHandRing2
										{
											OFFSET 0.000000 0.000002 4.061096
											CHANNELS 6 Xposition Yposition Zposition Zrotation Yrotation Xrotation
											JOINT LeftHandRing3
											{
												OFFSET 0.000000 0.000000 3.654984
												CHANNELS 6 Xposition Yposition Zposition Zrotation Yrotation Xrotation
												JOINT LeftHandRing4
												{
													OFFSET 0.000000 0.000000 2.741241
													CHANNELS 6 Xposition Yposition Zposition Zrotation Yrotation Xrotation
													End Site
													{
														OFFSET 0.000000 0.000000 0.100006
													}
												}
											}
										}
									}
									JOINT LeftHandPinky1
									{
										OFFSET 0.173504 4.467200 7.976990
										CHANNELS 6 Xposition Yposition Zposition Zrotation Yrotation Xrotation
										JOINT LeftHandPinky2
										{
											OFFSET 0.000000 0.000000 3.350403
											CHANNELS 6 Xposition Yposition Zposition Zrotation Yrotation Xrotation
											JOINT LeftHandPinky3
											{
												OFFSET 0.000000 0.000000 2.842758
												CHANNELS 6 Xposition Yposition Zposition Zrotation Yrotation Xrotation
												JOINT LeftHandPinky4
												{
													OFFSET 0.000000 0.000001 2.639709
													CHANNELS 6 Xposition Yposition Zposition Zrotation Yrotation Xrotation
													End Site
													{
														OFFSET 0.000000 0.000000 0.100006
													}
												}
											}
										}
									}
									JOINT LeftForeArmEnd
									{
										OFFSET 0.000000 0.000000 0.000000
										CHANNELS 6 Xposition Yposition Zposition Zrotation Yrotation Xrotation
										End Site
										{
											OFFSET 0.000000 0.000000 0.100006
										}
									}
								}
								JOINT LeftArmEnd
								{
									OFFSET 0.000000 0.000000 0.000000
									CHANNELS 6 Xposition Yposition Zposition Zrotation Yrotation Xrotation
									End Site
									{
										OFFSET 0.000000 0.000000 0.100006
									}
								}
							}
						}
					}
				}
			}
		}
	}
	JOINT RightUpLeg
	{
		OFFSET -11.289944 0.000000 0.000000
		CHANNELS 6 Xposition Yposition Zposition Zrotation Yrotation Xrotation
		JOINT RightLeg
		{
			OFFSET 0.000000 -0.000002 -38.200325
			CHANNELS 6 Xposition Yposition Zposition Zrotation Yrotation Xrotation
			JOINT RightFoot
			{
				OFFSET 0.000000 -0.000004 -39.900856
				CHANNELS 6 Xposition Yposition Zposition Zrotation Yrotation Xrotation
				JOINT RightToeBase
				{
					OFFSET 0.000000 -15.261641 0.000001
					CHANNELS 6 Xposition Yposition Zposition Zrotation Yrotation Xrotation
					JOINT RightToeBaseEnd
					{
						OFFSET 0.000000 -7.370708 0.000001
						CHANNELS 6 Xposition Yposition Zposition Zrotation Yrotation Xrotation
						End Site
						{
							OFFSET 0.000000 0.000000 0.100000
						}
					}
				}
				JOINT RightLegEnd
				{
					OFFSET 0.000000 0.000000 0.000000
					CHANNELS 6 Xposition Yposition Zposition Zrotation Yrotation Xrotation
					End Site
					{
						OFFSET 0.000000 0.000000 0.100000
					}
				}
			}
			JOINT RightUpLegEnd
			{
				OFFSET 0.000000 0.000000 0.000000
				CHANNELS 6 Xposition Yposition Zposition Zrotation Yrotation Xrotation
				End Site
				{
					OFFSET 0.000000 0.000000 0.099998
				}
			}
		}
	}
	JOINT LeftUpLeg
	{
		OFFSET 11.315661 0.000000 0.000000
		CHANNELS 6 Xposition Yposition Zposition Zrotation Yrotation Xrotation
		JOINT LeftLeg
		{
			OFFSET 0.000000 -0.000002 -38.200325
			CHANNELS 6 Xposition Yposition Zposition Zrotation Yrotation Xrotation
			JOINT LeftFoot
			{
				OFFSET 0.000000 -0.000004 -39.900856
				CHANNELS 6 Xposition Yposition Zposition Zrotation Yrotation Xrotation
				JOINT LeftToeBase
				{
					OFFSET 0.000000 -15.261641 0.000001
					CHANNELS 6 Xposition Yposition Zposition Zrotation Yrotation Xrotation
					JOINT LeftToeBaseEnd
					{
						OFFSET 0.000000 -7.539997 0.000001
						CHANNELS 6 Xposition Yposition Zposition Zrotation Yrotation Xrotation
						End Site
						{
							OFFSET 0.000000 0.000000 0.100000
						}
					}
				}
				JOINT LeftLegEnd
				{
					OFFSET 0.000000 0.000000 0.000000
					CHANNELS 6 Xposition Yposition Zposition Zrotation Yrotation Xrotation
					End Site
					{
						OFFSET 0.000000 0.000000 0.100000
					}
				}
			}
			JOINT LeftUpLegEnd
			{
				OFFSET 0.000000 0.000000 0.000000
				CHANNELS 6 Xposition Yposition Zposition Zrotation Yrotation Xrotation
				End Site
				{
					OFFSET 0.000000 0.000000 0.099998
				}
			}
		}
	}
}
MOTION
Frames: 2
Frame Time: 0.016667
6.956762 16.591236 86.335419 9.304174 0.790387 -11.438670 -0.000002 2.080108 8.814238 -0.033126 0.071359 7.675055 0.000001 0.000006 8.844137 -0.232762 -1.439034 9.509366 0.000001 0.000001 11.682288 0.475442 1.356186 14.556388 -0.000001 0.000007 11.746689 0.205252 0.953537 4.185376 -0.000002 0.000002 17.658268 -4.368785 -12.630365 29.438672 0.000003 -0.000018 5.101536 -0.664442 1.261845 0.938151 0.000002 -0.000001 5.101517 4.116854 -2.180253 -22.762333 -0.000002 0.000007 11.655077 0.000000 0.000001 -0.000005 -2.625388 0.000009 11.175228 9.237707 -93.530199 -0.569834 0.000024 0.000001 10.434732 -54.109872 -34.886274 55.044279 -0.000001 0.000003 29.628422 21.658608 -0.760647 46.011163 0.000000 0.000004 22.857611 1.575217 -5.043287 -11.114332 -2.867311 -2.944306 3.959572 31.644683 -17.093783 51.773035 -0.000001 0.000015 3.350399 -12.293595 8.271542 -22.243829 -0.000002 -0.000001 3.756551 -8.189155 6.261718 -15.233342 -0.000003 0.000006 3.147324 0.000001 0.000001 0.000001 -0.086743 -2.345278 10.030907 -11.752252 -15.766566 3.517393 0.000001 -0.000000 4.061097 0.338965 -11.341923 1.615475 -0.000002 0.000001 3.248889 -0.161904 -11.341961 1.615672 -0.000003 -0.000002 2.639711 -0.000003 0.000004 0.000000 0.104108 -0.006764 9.502921 -6.620721 -16.419404 -0.009929 -0.000001 0.000003 4.568726 0.442286 -11.637028 0.609456 0.000006 -0.000001 3.654981 -0.066589 -11.637018 0.613863 -0.000001 0.000005 2.741225 0.000002 -0.000001 0.000001 0.086754 2.267446 8.921731 1.527153 -17.176584 -3.933497 0.000003 0.000001 4.061102 -0.916519 -12.372252 -0.761955 -0.000003 0.000000 3.655007 0.083259 -12.372395 -0.764276 0.000004 0.000000 2.741242 -0.000005 0.000001 -0.000000 -0.173507 4.467207 7.977011 10.271797 -15.822760 -9.284806 0.000002 0.000000 3.350383 -1.752071 -12.208339 -2.409670 -0.000011 -0.000001 2.842763 0.247448 -12.208254 -2.409518 -0.000001 -0.000002 2.639710 -0.000001 0.000002 0.000000 -0.000000 0.000001 0.000000 -0.000002 0.000001 -0.000000 0.000003 -0.000000 0.000016 0.000000 -0.000001 -0.000003 2.625385 0.000009 11.175231 -8.115245 91.939605 -1.976218 0.000002 0.000004 10.813626 53.456923 32.335099 54.151543 0.000001 -0.000003 28.724779 -17.904878 2.760505 70.512769 0.644403 0.328880 25.716208 -9.165729 12.781798 -11.560687 2.867323 -2.944317 3.959605 -31.690712 16.746669 52.306668 -0.000004 0.000010 3.350435 11.527861 -7.943530 -20.955888 0.000000 0.000011 3.756536 7.690679 -5.973163 -14.361238 0.000005 0.000006 3.100005 -0.000000 -0.000001 0.000002 0.086752 -2.345282 10.030910 -5.605985 17.284957 -6.123286 0.000001 -0.000005 4.061104 0.298786 12.670231 -1.810622 0.000003 -0.000008 3.248865 -0.201182 12.670204 -1.798833 0.000001 0.000003 2.639710 0.000001 -0.000001 -0.000001 -0.104099 -0.006771 9.502960 -0.328020 17.958835 -5.831195 -0.000001 0.000002 4.568734 0.419171 12.982487 -0.691866 -0.000003 0.000001 3.654989 -0.078693 12.982306 -0.693699 0.000003 -0.000004 2.741241 -0.000002 0.000001 0.000000 -0.086748 2.267438 8.921730 8.330299 19.716687 -2.949196 0.000004 0.000002 4.061105 -0.896035 13.787753 0.860647 0.000006 -0.000003 3.655012 0.103949 13.787739 0.860619 0.000000 -0.000002 2.741241 0.000001 0.000002 0.000001 0.173520 4.467203 7.977043 17.315872 19.759773 0.090370 0.000002 -0.000003 3.350383 -1.685810 13.437314 2.662002 0.000005 -0.000001 2.842793 0.314780 13.437315 2.662149 0.000002 -0.000002 2.639695 0.000002 0.000003 -0.000000 0.000002 -0.000005 0.000046 -0.000002 -0.000003 -0.000004 0.000004 -0.000006 0.000000 0.000001 -0.000000 -0.000000 -11.289944 -0.000003 -0.000003 2.792659 0.388703 5.519995 0.000000 -0.000007 -38.200325 -0.861033 0.437555 26.572501 0.000001 -0.000004 -39.900852 -12.283065 0.809807 11.010309 0.000000 -15.261642 0.000001 -1.114053 0.453591 -30.160647 0.000000 -7.370712 0.000001 0.000000 -0.000001 -0.000000 0.000000 -0.000001 0.000002 -0.000001 -0.000000 0.000006 0.000000 0.000001 -0.000004 0.000001 -0.000000 0.000000 11.315660 -0.000007 -0.000007 -0.318019 2.294202 3.270045 -0.000003 -0.000004 -38.200325 0.197507 -0.100801 26.925932 -0.000002 -0.000001 -39.900848 3.988075 -8.189817 9.493855 0.000000 -15.261637 0.000000 0.984365 0.083148 -28.969226 -0.000002 -7.539997 0.000001 0.000000 0.000000 -0.000000 -0.000001 -0.000000 -0.000001 0.000001 0.000001 -0.000002 -0.000001 -0.000001 0.000004 -0.000000 0.000000 0.000000 
6.941893 16.412605 86.377556 9.181244 0.825917 -11.663919 0.000000 2.080106 8.814233 0.006285 0.129511 7.472473 -0.000001 -0.000001 8.844130 -0.238470 -1.484829 9.246760 0.000000 0.000001 11.682272 0.429347 1.377901 14.809255 0.000000 -0.000000 11.746685 0.172806 0.920480 4.141842 -0.000001 -0.000004 17.658260 -4.433967 -12.565391 29.958849 0.000001 -0.000004 5.101512 -0.720231 1.234032 1.117814 -0.000001 0.000006 5.101541 4.121799 -2.230801 -22.805484 -0.000001 0.000005 11.655076 -0.000001 0.000001 -0.000002 -2.625389 -0.000003 11.175237 9.080921 -93.930244 -0.569646 0.000006 -0.000002 10.434732 -53.712526 -35.289487 54.346774 -0.000002 -0.000006 29.628424 21.664836 -0.805847 46.188147 -0.000001 0.000003 22.857611 2.036060 -4.857696 -11.080092 -2.867316 -2.944311 3.959570 31.644724 -17.093785 51.773059 0.000003 0.000003 3.350422 -12.293595 8.271527 -22.243863 -0.000002 -0.000000 3.756542 -8.189150 6.261720 -15.233318 -0.000003 0.000001 3.147323 0.000001 0.000001 0.000001 -0.086751 -2.345279 10.030914 -11.743715 -15.719930 3.609754 -0.000004 0.000000 4.061104 0.338701 -11.319112 1.612343 -0.000003 0.000001 3.248887 -0.162953 -11.319102 1.612655 -0.000000 0.000003 2.639709 -0.000001 -0.000001 0.000000 0.104108 -0.006764 9.502913 -6.616470 -16.396036 0.041457 -0.000004 0.000004 4.568721 0.443291 -11.622799 0.606122 0.000003 0.000003 3.655007 -0.066193 -11.622609 0.612467 -0.000000 0.000001 2.741240 0.000001 -0.000003 0.000002 0.086749 2.267446 8.921717 1.531030 -17.184126 -3.937613 0.000000 0.000001 4.061102 -0.916018 -12.377854 -0.757569 -0.000001 0.000003 3.655007 0.083505 -12.377862 -0.762824 -0.000001 -0.000000 2.741241 -0.000001 -0.000001 0.000001 -0.173515 4.467207 7.977005 10.267715 -15.849633 -9.339656 0.000007 0.000001 3.350425 -1.750543 -12.234925 -2.413801 0.000002 0.000001 2.842787 0.249233 -12.235228 -2.413747 -0.000000 0.000001 2.639695 -0.000000 0.000001 -0.000000 -0.000000 0.000002 0.000001 0.000004 0.000003 0.000000 0.000001 0.000001 0.000000 -0.000002 -0.000001 -0.000003 2.625386 -0.000005 11.175210 -7.860663 92.352791 -1.869573 0.000001 -0.000006 10.813623 52.921378 32.264099 53.238914 -0.000007 -0.000008 28.724787 -17.960860 2.759429 71.950469 0.644397 0.328882 25.716213 -9.250135 13.430130 -11.067798 2.867313 -2.944318 3.959572 -31.690722 16.746683 52.306600 -0.000012 0.000001 3.350437 11.527849 -7.943567 -20.955748 -0.000001 0.000011 3.756520 7.690712 -5.973144 -14.361303 0.000002 0.000004 3.100022 -0.000000 0.000001 -0.000001 0.086748 -2.345285 10.030885 -5.641866 17.193601 -5.510181 0.000000 -0.000000 4.061132 0.298640 12.542951 -1.792753 -0.000007 0.000000 3.248891 -0.201070 12.542835 -1.792673 0.000003 -0.000005 2.639693 0.000001 0.000003 0.000004 -0.104110 -0.006780 9.502950 -0.351420 17.877448 -5.285454 0.000003 0.000001 4.568750 0.418378 12.900962 -0.693364 0.000006 0.000003 3.655005 -0.079492 12.900960 -0.694152 0.000003 -0.000005 2.741257 -0.000001 0.000002 0.000001 -0.086750 2.267439 8.921709 8.334046 19.688847 -2.485975 0.000002 -0.000000 4.061100 -0.895601 13.793769 0.866016 -0.000005 -0.000002 3.655004 0.104816 13.793784 0.862095 0.000003 0.000004 2.741226 -0.000001 0.000000 -0.000000 0.173508 4.467196 7.977011 17.353091 19.797380 0.519690 0.000001 -0.000003 3.350418 -1.682372 13.530063 2.680854 -0.000000 -0.000003 2.842737 0.316367 13.530057 2.680565 -0.000001 0.000005 2.639710 0.000002 0.000002 0.000001 -0.000003 -0.000008 0.000016 -0.000002 0.000000 -0.000001 0.000000 0.000006 -0.000000 -0.000003 -0.000000 0.000001 -11.289942 -0.000005 -0.000008 2.927761 0.265019 6.042925 -0.000001 -0.000006 -38.200321 -0.876823 0.437477 26.182921 0.000002 -0.000001 -39.900856 -12.321681 0.859238 11.112659 0.000001 -15.261640 -0.000003 -1.108373 0.464587 -30.150682 -0.000000 -7.370716 0.000000 -0.000000 -0.000001 -0.000000 -0.000000 -0.000002 0.000002 -0.000000 0.000001 0.000002 -0.000001 0.000002 -0.000004 -0.000000 -0.000000 0.000001 11.315662 -0.000002 -0.000015 -0.171121 2.195236 3.802574 -0.000002 -0.000002 -38.200329 0.201434 -0.101232 26.612466 -0.000002 -0.000006 -39.900856 3.942280 -8.167574 9.512889 0.000001 -15.261637 0.000000 0.988591 0.068560 -28.967829 0.000001 -7.539997 0.000000 0.000000 -0.000000 -0.000000 0.000000 0.000000 0.000000 0.000000 0.000001 -0.000001 -0.000001 -0.000003 -0.000000 -0.000000 -0.000001 0.000000 
